<svg style="width:0; height:0; visibility: hidden;" xmlns="http://www.w3.org/2000/svg" xmlns:xlink="http://www.w3.org/1999/xlink">
        <symbol id="svg-quotes" viewBox="0 0 25 20">
                <g>
                        <path
                                d="M23.6865 0.719727V2.10742C21.723 2.82487 20.1842 3.95768 19.0703 5.50586C17.9564 7.03516 17.3994 8.63053 17.3994 10.292C17.3994 10.6507 17.4561 10.915 17.5693 11.085C17.6449 11.1982 17.7298 11.2549 17.8242 11.2549C17.9186 11.2549 18.0602 11.1888 18.249 11.0566C18.8532 10.6224 19.6178 10.4053 20.543 10.4053C21.6191 10.4053 22.5726 10.849 23.4033 11.7363C24.234 12.6048 24.6494 13.6432 24.6494 14.8516C24.6494 16.1165 24.168 17.2305 23.2051 18.1934C22.2611 19.1562 21.1094 19.6377 19.75 19.6377C18.1641 19.6377 16.7952 18.9863 15.6436 17.6836C14.4919 16.3809 13.916 14.6344 13.916 12.4443C13.916 9.89551 14.6995 7.611 16.2666 5.59082C17.8337 3.57064 20.307 1.94694 23.6865 0.719727ZM10.0645 0.719727V2.10742C8.10091 2.82487 6.56217 3.95768 5.44824 5.50586C4.33431 7.03516 3.77734 8.63053 3.77734 10.292C3.77734 10.6507 3.83398 10.915 3.94727 11.085C4.02279 11.1982 4.10775 11.2549 4.20215 11.2549C4.29655 11.2549 4.43815 11.1888 4.62695 11.0566C5.23112 10.6224 5.99577 10.4053 6.9209 10.4053C7.99707 10.4053 8.95052 10.849 9.78125 11.7363C10.612 12.6048 11.0273 13.6432 11.0273 14.8516C11.0273 16.1165 10.5459 17.2305 9.58301 18.1934C8.639 19.1562 7.4873 19.6377 6.12793 19.6377C4.54199 19.6377 3.17318 18.9863 2.02148 17.6836C0.869792 16.3809 0.293945 14.6344 0.293945 12.4443C0.293945 9.89551 1.07747 7.611 2.64453 5.59082C4.21159 3.57064 6.6849 1.94694 10.0645 0.719727Z"
                                 />
                </g>
        </symbol>
        <symbol id="svg-facebook" width="15.000000" height="30.000000" viewBox="0 0 15 30">
                <g>
                        <path id="Fill 1" d="M9.7 29.94L9.7 16.28L14.11 16.28L14.77 10.96L9.7 10.96L9.7 7.56C9.7 6.02 10.12 4.97 12.24 4.97L14.95 4.97L14.95 0.2C14.48 0.14 12.87 0 11 0C7.09 0 4.42 2.48 4.42 7.03L4.42 10.96L0 10.96L0 16.28L4.42 16.28L4.42 29.94L9.7 29.94Z" fill-opacity="1.000000" fill-rule="evenodd"/>
                </g>

        </symbol>
        <symbol id="svg-inst" width="30.000000" height="30.000000" viewBox="0 0 30 30">
                <g>
                        <mask id="mask2_315" mask-type="alpha" maskUnits="userSpaceOnUse" x="0.000000" y="0.000000" width="30.000000" height="30.000000">
                                <path id="Clip 2" d="M15 0L30 0L30 30L15 30L0 30L0 0L15 0Z" fill="#E95B5A" fill-opacity="1.000000" fill-rule="evenodd"/>
                        </mask>
                        <g mask="url(#mask2_315)">
                                <path id="Fill 1" d="M0 10.0596L0 19.9404C0.0230103 20.2521 0.0548706 20.5632 0.067688 20.8752C0.125793 22.2979 0.29187 23.7017 0.863037 25.0227C1.9165 27.459 3.77515 28.9403 6.32953 29.5813C7.46173 29.8654 8.61914 29.9178 9.7785 29.9521C9.87256 29.955 9.96588 29.9834 10.0595 30L19.9404 30C20.252 29.9769 20.5632 29.9452 20.8752 29.9324C22.2977 29.8738 23.7015 29.7083 25.0226 29.137C27.4589 28.0834 28.9404 26.2249 29.5812 23.6705C29.8653 22.5383 29.9178 21.3809 29.9521 20.2216C29.955 20.1274 29.9835 20.0342 30 19.9404L30 10.0596C29.9769 9.74792 29.9451 9.43677 29.9323 9.12476C29.8738 7.70227 29.7081 6.29846 29.137 4.97742C28.0834 2.54114 26.2249 1.05981 23.6705 0.418701C22.5383 0.134521 21.3808 0.0823975 20.2214 0.0478516C20.1274 0.0450439 20.0341 0.0166016 19.9404 0L10.0595 0C9.74799 0.0230713 9.43677 0.0549316 9.12476 0.067627C7.70215 0.125854 6.2984 0.29187 4.97729 0.863159C2.54108 1.9165 1.05969 3.77515 0.418701 6.32947C0.134521 7.46167 0.0823364 8.61914 0.0477905 9.77856C0.0449829 9.87256 0.0164795 9.96582 0 10.0596ZM27.3177 14.9984C27.3024 14.9983 27.287 14.9982 27.2716 14.9979C27.2716 14.6183 27.2739 14.2385 27.2761 13.8588C27.2812 12.989 27.2864 12.1191 27.2645 11.25C27.2349 10.0721 27.1906 8.89124 27.071 7.71997C26.9567 6.59961 26.562 5.56714 25.8057 4.69629C24.7476 3.47791 23.351 2.9646 21.8047 2.87012C20.045 2.76282 18.2793 2.73633 16.5157 2.71484C14.7607 2.69348 13.0047 2.70056 11.2499 2.73584C10.0721 2.7594 8.89124 2.80945 7.71997 2.92896C6.59961 3.04321 5.56708 3.43811 4.69623 4.19434C3.47784 5.25244 2.96454 6.64905 2.87018 8.19531C2.76276 9.95508 2.73633 11.7207 2.71484 13.4843C2.69342 15.2393 2.70062 16.9954 2.73578 18.75C2.7594 19.9279 2.80945 21.1088 2.92896 22.28C3.04327 23.4004 3.43799 24.4329 4.19434 25.3038C5.25244 26.5221 6.64905 27.0354 8.19525 27.1298C9.95502 27.2372 11.7207 27.2637 13.4843 27.2852C15.2393 27.3065 16.9956 27.3071 18.7499 27.262C20.0455 27.2288 21.3539 27.204 22.6296 27.0037C24.8099 26.6614 26.2853 25.3972 26.8723 23.2332C27.0625 22.532 27.1621 21.7909 27.1891 21.0638C27.264 19.0432 27.2791 17.0204 27.3177 14.9984Z" clip-rule="evenodd" fill-opacity="1.000000" fill-rule="evenodd"/>
                        </g>
                        <path id="Fill 4" d="M14.9786 22.7089C19.2516 22.715 22.707 19.272 22.7087 15.0067C22.7103 10.7495 19.2717 7.29858 15.0213 7.2915C10.7493 7.28442 7.29431 10.7269 7.29126 14.9937C7.28827 19.2491 10.7294 22.7028 14.9786 22.7089ZM14.9958 19.9902C17.726 19.9904 19.9874 17.7562 19.9901 15.0564C19.9927 12.2751 17.7768 10.0122 15.0487 10.0101C12.2573 10.0081 10.0103 12.228 10.0099 14.9885C10.0096 17.7488 12.2438 19.9901 14.9958 19.9902Z" clip-rule="evenodd" fill-opacity="1.000000" fill-rule="evenodd"/>
                        <path id="Fill 6" d="M22.99 5.18C23.99 5.18 24.8 5.98 24.81 6.98C24.81 7.99 24 8.8 23 8.8C22.01 8.8 21.18 7.98 21.19 6.98C21.19 6 22 5.19 22.99 5.18Z" fill-opacity="1.000000" fill-rule="evenodd"/>
                </g>
        </symbol>
        <symbol id="y-tube" width="25.000000" height="29.000000" viewBox="0 0 25 29">
                <g>
                        <path id="Fill 1" d="M20.19 10.39L18.61 10.39L18.61 9.47C18.01 10.16 17.5 10.51 16.95 10.51C16.46 10.51 16.12 10.28 15.95 9.86C15.85 9.61 15.78 9.21 15.78 8.63L15.78 1.93L17.36 1.93L17.36 8.21L17.36 8.8C17.4 9.03 17.49 9.12 17.7 9.12C18 9.12 18.27 8.85 18.61 8.38L18.61 1.93L20.19 1.93L20.19 10.39Z" fill-opacity="1.000000" fill-rule="evenodd"/>
                        <path id="Fill 3" d="M14.1201 2.68579C14.4388 3.11328 14.619 3.79211 14.619 4.69653L14.619 7.71252C14.619 8.61169 14.472 9.23291 14.1534 9.65625C13.7325 10.2333 13.0391 10.5389 12.3738 10.5389C11.7086 10.5389 11.0272 10.2333 10.6069 9.65625C10.2831 9.23291 10.1287 8.61169 10.1287 7.71252L10.1302 4.70386C10.1302 3.79956 10.3039 3.11328 10.6276 2.68579C11.0479 2.10706 11.6209 1.87012 12.3738 1.87012C13.0391 1.87012 13.6992 2.10706 14.1201 2.68579ZM13.0391 7.88013C13.1223 8.7179 12.8643 9.13354 12.3737 9.13354C11.8832 9.13354 11.6254 8.7179 11.7086 7.88013L11.7086 4.52893C11.6254 3.69116 11.8832 3.29846 12.3738 3.29846C12.8644 3.29846 13.1231 3.69116 13.0399 4.52893L13.0391 7.88013Z" clip-rule="evenodd" fill-opacity="1.000000" fill-rule="evenodd"/>
                        <mask id="mask2_298" mask-type="alpha" maskUnits="userSpaceOnUse" x="4.640442" y="-0.916016" width="5.820862" height="11.310181">
                                <path id="Clip 6" d="M10.46 -0.92L4.64 -0.92L4.64 10.39L10.46 10.39L10.46 -0.92Z" fill="#F53855" fill-opacity="1.000000" fill-rule="evenodd"/>
                        </mask>
                        <g mask="url(#mask2_298)">
                                <path id="Fill 5" d="M8.38 5.78L8.38 10.39L6.71 10.39L6.71 5.78C6.71 5.78 4.99 0.13 4.64 -0.92L6.38 -0.92L7.55 3.49L8.71 -0.92L10.46 -0.92L8.38 5.78Z" fill-opacity="1.000000" fill-rule="evenodd"/>
                        </g>
                        <path id="Fill 8" d="M14.96 18.54C14.72 18.54 14.43 18.67 14.18 18.92L14.18 24C14.43 24.25 14.72 24.38 14.96 24.38C15.4 24.38 15.59 24.06 15.59 23.22L15.59 19.62C15.59 18.78 15.4 18.54 14.96 18.54Z" fill-opacity="1.000000" fill-rule="evenodd"/>
                        <path id="Fill 10" d="M21.17 19.54C21.17 18.77 20.97 18.54 20.47 18.54C19.96 18.54 19.75 18.75 19.75 19.53L19.75 20.46L21.17 20.46L21.17 19.54Z" fill-opacity="1.000000" fill-rule="evenodd"/>
                        <mask id="mask2_303" mask-type="alpha" maskUnits="userSpaceOnUse" x="0.000000" y="11.482910" width="24.830872" height="17.516235">
                                <path id="Clip 13" d="M0 28.99L24.83 28.99L24.83 11.48L0 11.48L0 28.99Z" fill="#F53855" fill-opacity="1.000000" fill-rule="evenodd"/>
                        </mask>
                        <g mask="url(#mask2_303)">
                                <path id="Fill 12" d="M23.5958 12.7896C24.3403 13.5454 24.5829 15.2617 24.5829 15.2617C24.5829 15.2617 24.8309 17.2769 24.8309 19.2924L24.8309 21.1818C24.8309 23.1971 24.5829 25.2124 24.5829 25.2124C24.5829 25.2124 24.3403 26.9286 23.5958 27.6843C22.6516 28.6764 21.5931 28.6814 21.1078 28.7394C17.6331 28.9912 12.4155 28.9991 12.4155 28.9991C12.4155 28.9991 5.95959 28.9401 3.97308 28.7488C3.42059 28.6449 2.17957 28.6764 1.23511 27.6843C0.490601 26.9286 0.248291 25.2124 0.248291 25.2124C0.248291 25.2124 0 23.1971 0 21.1818L0 19.2924C0 17.2769 0.248291 15.2617 0.248291 15.2617C0.248291 15.2617 0.490601 13.5454 1.23511 12.7896C2.17957 11.7977 3.23767 11.7928 3.72308 11.7349C7.19775 11.4829 12.4101 11.4829 12.4101 11.4829L12.421 11.4829C12.421 11.4829 17.6331 11.4829 21.1078 11.7349C21.5931 11.7928 22.6516 11.7977 23.5958 12.7896ZM5.4538 25.658L3.79071 25.658L3.79071 16.0234L2.04443 16.0234L2.04443 14.4333L7.2832 14.4316L7.2832 16.0234L5.4538 16.0234L5.4538 25.658ZM17.1787 23.1445C17.1787 23.9188 17.1129 24.4653 17.0124 24.8202C16.8115 25.4426 16.3734 25.766 15.774 25.766C15.2387 25.766 14.6902 25.4415 14.1872 24.8145L14.1851 25.658L12.6883 25.658L12.6883 14.4316L14.1851 14.4316L14.1833 18.0917C14.6697 17.4889 15.2202 17.1458 15.774 17.1458C16.3734 17.1458 16.7764 17.4945 16.9773 18.1216C17.0778 18.4584 17.1787 19.0005 17.1787 19.7935L17.1787 23.1445ZM21.1589 23.7787C21.073 24.1841 20.857 24.3872 20.4864 24.3872C19.9695 24.3872 19.7513 23.9979 19.7565 23.2249L19.7565 21.7203L22.753 21.7203L22.7527 20.0077C22.7527 19.1128 22.5777 18.4584 22.263 18.0348C21.8411 17.4619 21.2416 17.1588 20.4864 17.1588C19.7178 17.1588 19.1184 17.4619 18.683 18.0348C18.3632 18.4584 18.1766 19.15 18.1766 20.0448L18.1766 22.9771C18.1766 23.8667 18.3816 24.4895 18.7014 24.9084C19.1368 25.4805 19.7362 25.766 20.5237 25.766C21.3102 25.766 21.9281 25.4663 22.3445 24.8584C22.5276 24.5901 22.6458 24.2859 22.6967 23.9496C22.7101 23.7979 22.7501 23.4519 22.7501 22.9631L22.7501 22.7257L21.1702 22.7257C21.1702 22.8151 21.1703 22.8992 21.1703 22.9778C21.1707 23.4346 21.1708 23.7081 21.1589 23.7787ZM9.86102 25.658L11.441 25.658L11.441 17.28L9.86102 17.28L9.86102 23.6472C9.52661 24.1224 9.25293 24.3872 8.95056 24.3872C8.74969 24.3872 8.65057 24.3013 8.61371 24.0662L8.61371 17.28L7.03375 17.28L7.03375 23.8986C7.03375 24.4801 7.10651 24.8761 7.20917 25.1295C7.37793 25.5466 7.71521 25.7775 8.20087 25.7775C8.75433 25.7775 9.26208 25.4281 9.86102 24.7365L9.86102 25.658Z" clip-rule="evenodd" fill-opacity="1.000000" fill-rule="evenodd"/>
                        </g>
                </g>
        </symbol>
        <symbol id="twitter">
                <g>
                        <path fill-rule="evenodd" clip-rule="evenodd" d="M5.6406 2.98905L5.66578 3.40428L5.2461 3.35344C3.71843 3.15853 2.38383 2.49756 1.25067 1.38746L0.696681 0.836651L0.553988 1.2434C0.251813 2.15012 0.444869 3.10769 1.0744 3.75172C1.41015 4.10762 1.33461 4.15847 0.755438 3.94662C0.553988 3.87883 0.377719 3.82798 0.360931 3.8534C0.302175 3.91272 0.503625 4.68386 0.663106 4.98892C0.881344 5.41262 1.32621 5.82785 1.81305 6.0736L2.22434 6.2685L1.73751 6.27697C1.26746 6.27697 1.25067 6.28545 1.30103 6.4634C1.46891 7.01421 2.13201 7.59892 2.87066 7.85314L3.39108 8.0311L2.93781 8.30226C2.26631 8.69207 1.4773 8.91239 0.688288 8.92934C0.310569 8.93782 0 8.97171 0 8.99713C0 9.08187 1.02404 9.55642 1.61999 9.74285C3.40786 10.2937 5.53148 10.0564 7.1263 9.11577C8.25945 8.44632 9.39261 7.1159 9.92142 5.82785C10.2068 5.14145 10.4922 3.8873 10.4922 3.28564C10.4922 2.89584 10.5174 2.84499 10.9874 2.37892C11.2644 2.10775 11.5246 1.81116 11.575 1.72642C11.6589 1.56542 11.6505 1.56542 11.2224 1.70948C10.509 1.9637 10.4083 1.9298 10.7608 1.54847C11.021 1.2773 11.3316 0.785807 11.3316 0.641749C11.3316 0.616327 11.2057 0.658697 11.063 0.734963C10.9119 0.819703 10.5761 0.946814 10.3243 1.02308L9.87105 1.16714L9.45976 0.887496C9.23313 0.734963 8.91417 0.565483 8.74629 0.514639C8.31821 0.396002 7.6635 0.41295 7.27738 0.548535C6.22816 0.929866 5.56506 1.91285 5.6406 2.98905Z" fill="white"/>
                </g>
        </symbol>
        <symbol id="svg-y-tube">
                <g>
                        <path fill-rule="evenodd" clip-rule="evenodd" d="M12.0008 1.11011C12.5515 1.26125 12.9853 1.70656 13.1325 2.27206C13.4 3.29697 13.4 5.43545 13.4 5.43545C13.4 5.43545 13.4 7.57386 13.1325 8.59884C12.9853 9.16434 12.5515 9.60965 12.0008 9.76086C11.0027 10.0354 6.99998 10.0354 6.99998 10.0354C6.99998 10.0354 2.99728 10.0354 1.9991 9.76086C1.44834 9.60965 1.01459 9.16434 0.867394 8.59884C0.599976 7.57386 0.599976 5.43545 0.599976 5.43545C0.599976 5.43545 0.599976 3.29697 0.867394 2.27206C1.01459 1.70656 1.44834 1.26125 1.9991 1.11011C2.99728 0.835449 6.99998 0.835449 6.99998 0.835449C6.99998 0.835449 11.0027 0.835449 12.0008 1.11011ZM5.79999 3.63541V7.63541L8.99999 5.63548L5.79999 3.63541Z" fill="white"/>
                </g>
        </symbol>
        <symbol id="mail">
                <g>
                        <path fill-rule="evenodd" clip-rule="evenodd" d="M13.4 7.22658C13.4 7.6594 13.3559 8.09161 13.2694 8.51293C13.185 8.92423 13.06 9.32804 12.8962 9.71405C12.7362 10.0932 12.5378 10.4586 12.3059 10.7994C12.0774 11.138 11.8143 11.4557 11.5252 11.7453C11.2355 12.0336 10.9167 12.2961 10.5783 12.5255C10.2364 12.7557 9.87047 12.9539 9.49106 13.1146C9.10448 13.2775 8.69975 13.4024 8.2888 13.4866C7.86693 13.5734 7.43313 13.6177 6.99969 13.6177C6.56592 13.6177 6.13215 13.5734 5.71088 13.4866C5.2993 13.4024 4.89459 13.2775 4.50832 13.1146C4.12893 12.9539 3.76264 12.7557 3.42076 12.5255C3.0823 12.2961 2.76354 12.0336 2.47446 11.7453C2.18508 11.4557 1.92193 11.138 1.69317 10.7994C1.46253 10.4586 1.26376 10.0932 1.10313 9.71405C0.939356 9.32804 0.814055 8.92421 0.72936 8.51293C0.643738 8.09161 0.599976 7.6594 0.599976 7.22658C0.599976 6.79343 0.643713 6.36029 0.729385 5.9399C0.81408 5.52859 0.939381 5.12417 1.10316 4.73877C1.26378 4.35931 1.46256 3.99358 1.69319 3.65279C1.92195 3.3139 2.18511 2.99682 2.47449 2.7069C2.76357 2.41854 3.08233 2.15674 3.42078 1.92769C3.76267 1.69643 4.12895 1.4983 4.50834 1.33726C4.89462 1.17402 5.2993 1.04889 5.7109 0.965272C6.13217 0.879149 6.56594 0.835449 6.99971 0.835449C7.43316 0.835449 7.86693 0.879149 8.28882 0.965272C8.69977 1.04892 9.10448 1.17404 9.49109 1.33726C9.87047 1.49827 10.2364 1.69643 10.5783 1.92769C10.9168 2.15674 11.2356 2.41854 11.5252 2.7069C11.8143 2.99682 12.0775 3.3139 12.3059 3.65279C12.5378 3.99358 12.7362 4.35934 12.8962 4.73877C13.06 5.12417 13.185 5.52859 13.2694 5.9399C13.3559 6.36029 13.4 6.79343 13.4 7.22658ZM4.66766 2.28998C3.14351 3.00869 2.00595 4.4111 1.65124 6.10126C1.79533 6.10251 4.07295 6.13122 6.69713 5.43498C5.75116 3.75669 4.74049 2.38706 4.66766 2.28998ZM7.14997 6.27541C4.33577 7.11671 1.6353 7.05617 1.53844 7.05245C1.53686 7.11111 1.53405 7.16789 1.53405 7.22657C1.53405 8.62866 2.06376 9.90688 2.93444 10.8734C2.93256 10.8706 4.42828 8.22081 7.3778 7.26839C7.44904 7.24468 7.52156 7.22344 7.59343 7.20286C7.45626 6.89268 7.30653 6.58186 7.14997 6.27541ZM10.6092 3.13039C9.64698 2.28311 8.3835 1.76917 6.99967 1.76917C6.55558 1.76917 6.12461 1.82285 5.71179 1.92208C5.79365 2.03194 6.82028 3.39191 7.75501 5.10575C9.81732 4.33372 10.5958 3.15035 10.6092 3.13039ZM7.96599 8.10722C7.95382 8.11125 7.94165 8.11473 7.92975 8.11908C4.70494 9.24167 3.65184 11.504 3.64045 11.5287C4.56833 12.2493 5.73214 12.684 6.99971 12.684C7.7566 12.684 8.47757 12.5301 9.13354 12.2515C9.0526 11.7746 8.73509 10.1032 7.96599 8.10722ZM10.0539 11.7528C11.2811 10.9258 12.1527 9.61265 12.3959 8.09159C12.2834 8.05539 10.7542 7.572 8.99006 7.85443C9.70697 9.82171 9.99825 11.4239 10.0539 11.7528ZM8.1757 5.91901C8.30256 6.17928 8.4254 6.44418 8.53883 6.7104C8.57916 6.80591 8.61854 6.89954 8.65697 6.99314C10.5346 6.75721 12.3843 7.15415 12.4634 7.17036C12.4509 5.87656 11.9874 4.68914 11.2206 3.75952C11.2102 3.77415 10.3336 5.03896 8.1757 5.91901Z" fill="white"/>
                </g>
        </symbol>
        <symbol id="inst">
                <g>
                        <path fill-rule="evenodd" clip-rule="evenodd" d="M7.00058 0.835449C5.26242 0.835449 5.04429 0.843049 4.36161 0.874116C3.68027 0.905317 3.2152 1.01318 2.80827 1.17145C2.38733 1.33492 2.03026 1.55359 1.67452 1.90946C1.31852 2.2652 1.09985 2.62227 0.935846 3.04307C0.777177 3.45014 0.669176 3.91535 0.638509 4.59642C0.607976 5.2791 0.599976 5.49736 0.599976 7.23552C0.599976 8.97367 0.607709 9.19114 0.638643 9.87381C0.669976 10.5551 0.777844 11.0202 0.935979 11.4272C1.09958 11.8481 1.31825 12.2052 1.67412 12.5609C2.02972 12.9169 2.38679 13.1361 2.80747 13.2996C3.21467 13.4578 3.67987 13.5657 4.36108 13.5969C5.04376 13.628 5.26176 13.6356 6.99978 13.6356C8.73806 13.6356 8.95553 13.628 9.6382 13.5969C10.3195 13.5657 10.7851 13.4578 11.1924 13.2996C11.6132 13.1361 11.9697 12.9169 12.3253 12.5609C12.6813 12.2052 12.9 11.8481 13.064 11.4273C13.2213 11.0202 13.3293 10.555 13.3613 9.87394C13.392 9.19127 13.4 8.97367 13.4 7.23552C13.4 5.49736 13.392 5.27923 13.3613 4.59655C13.3293 3.91521 13.2213 3.45014 13.064 3.04321C12.9 2.62227 12.6813 2.2652 12.3253 1.90946C11.9693 1.55346 11.6133 1.33479 11.192 1.17145C10.7839 1.01318 10.3186 0.905317 9.63727 0.874116C8.9546 0.843049 8.73726 0.835449 6.99858 0.835449H7.00058ZM6.42641 1.98878C6.59681 1.98851 6.78695 1.98878 7.00055 1.98878C8.70937 1.98878 8.9119 1.99491 9.58671 2.02558C10.2107 2.05411 10.5494 2.15838 10.775 2.24598C11.0737 2.36198 11.2866 2.50065 11.5105 2.72465C11.7345 2.94865 11.8731 3.16199 11.9894 3.46066C12.077 3.68599 12.1814 4.02466 12.2098 4.64867C12.2405 5.32334 12.2471 5.52601 12.2471 7.23403C12.2471 8.94205 12.2405 9.14472 12.2098 9.81939C12.1813 10.4434 12.077 10.7821 11.9894 11.0074C11.8734 11.3061 11.7345 11.5187 11.5105 11.7426C11.2865 11.9666 11.0738 12.1053 10.775 12.2213C10.5497 12.3093 10.2107 12.4133 9.58671 12.4418C8.91203 12.4725 8.70937 12.4792 7.00055 12.4792C5.2916 12.4792 5.08906 12.4725 4.41439 12.4418C3.79038 12.413 3.45171 12.3088 3.22598 12.2211C2.92731 12.1051 2.71397 11.9665 2.48997 11.7425C2.26597 11.5185 2.1273 11.3057 2.01103 11.0069C1.92343 10.7815 1.81903 10.4429 1.79063 9.81886C1.75996 9.14419 1.75383 8.94152 1.75383 7.23243C1.75383 5.52335 1.75996 5.32174 1.79063 4.64707C1.81916 4.02306 1.92343 3.68439 2.01103 3.45879C2.12703 3.16012 2.26597 2.94679 2.48997 2.72278C2.71397 2.49878 2.92731 2.36011 3.22598 2.24385C3.45158 2.15584 3.79038 2.05184 4.41439 2.02318C5.00479 1.99651 5.2336 1.98851 6.42641 1.98718V1.98878ZM10.4169 3.05146C9.99285 3.05146 9.64885 3.39506 9.64885 3.8192C9.64885 4.2432 9.99285 4.58721 10.4169 4.58721C10.8409 4.58721 11.1849 4.2432 11.1849 3.8192C11.1849 3.39519 10.8409 3.05146 10.4169 3.05146ZM7.00059 3.9488C5.1855 3.9488 3.71389 5.42041 3.71389 7.2355C3.71389 9.05058 5.1855 10.5215 7.00059 10.5215C8.81567 10.5215 10.2868 9.05058 10.2868 7.2355C10.2868 5.42041 8.81567 3.9488 7.00059 3.9488ZM7.00056 5.10214C8.17871 5.10214 9.13392 6.05722 9.13392 7.2355C9.13392 8.41364 8.17871 9.36885 7.00056 9.36885C5.82228 9.36885 4.86721 8.41364 4.86721 7.2355C4.86721 6.05722 5.82228 5.10214 7.00056 5.10214Z" fill="white"/>
                </g>
        </symbol>
        <symbol id="svg-message">
                <g>
                        <path id="Message" d="M16.9394 3C18.2804 3 19.5704 3.53003 20.5193 4.48096C21.4694 5.42993 22.0004 6.70996 22.0004 8.05005L22.0004 15.95C22.0004 18.74 19.7303 21 16.9394 21L7.06036 21C4.26935 21 2.00037 18.74 2.00037 15.95L2.00037 8.05005C2.00037 5.26001 4.25934 3 7.06036 3L16.9394 3ZM18.6104 9.45996L18.5304 9.54004L14.0193 13.1499C13.4604 13.5901 12.7693 13.8301 12.0604 13.8301C11.3494 13.8301 10.6703 13.5901 10.1104 13.1499L5.56036 9.6001L5.42938 9.46997C5.20038 9.16992 5.23035 8.73999 5.50037 8.46997C5.75934 8.19995 6.18939 8.16992 6.50037 8.3999L11.0004 12C11.5894 12.481 12.4203 12.481 13.0004 12L17.5093 8.3999C17.6603 8.26001 17.8604 8.18896 18.0704 8.19995C18.2693 8.21997 18.4604 8.31104 18.5994 8.45996C18.8494 8.75 18.8494 9.16992 18.6104 9.45996Z" clip-rule="evenodd" fill-opacity="1.000000" fill-rule="evenodd"/>
                </g>
        </symbol>
        <symbol id="svg-phone">
                <g>
                        <path id="Calling" d="M14.3558 2.00781C14.1328 1.97583 13.9087 2.04199 13.7304 2.18384C13.5472 2.32764 13.4326 2.53564 13.4078 2.76831C13.355 3.23901 13.6946 3.66479 14.1646 3.71777C17.4063 4.07959 19.9259 6.60474 20.2904 9.85645C20.3392 10.2922 20.7047 10.6211 21.1409 10.6211C21.1738 10.6211 21.2057 10.6189 21.2385 10.615C21.4666 10.5901 21.6697 10.4771 21.8132 10.2971C21.9556 10.1174 22.0203 9.89355 21.9944 9.66455C21.5403 5.60742 18.4002 2.45874 14.3558 2.00781ZM16.0001 15.0906C16.4515 14.8303 16.9614 14.5361 17.6047 14.6731C18.1873 14.7959 20.1731 16.408 20.7169 16.9666C21.0734 17.3323 21.2716 17.71 21.3025 18.0876C21.3563 19.5696 19.3425 21.2615 18.976 21.4724C18.489 21.8232 17.9224 22 17.286 22C16.6357 22 15.9106 21.8152 15.1199 21.4463C10.8295 19.6555 4.27551 13.231 2.54266 8.97388C1.82361 7.38892 1.81866 6.08203 2.5307 5.09961C2.81451 4.63892 4.43286 2.71313 5.8819 2.77417C6.26733 2.80713 6.64178 3.00513 7.00928 3.36475C7.565 3.90942 9.13654 5.90112 9.258 6.4856C9.39246 7.13525 9.09766 7.65186 8.83575 8.10547C8.77991 8.20312 8.70465 8.31885 8.62219 8.44556C8.3092 8.92676 7.89264 9.56738 8.04004 9.97632C9.09668 12.5706 11.5377 14.834 14.1329 15.8972C14.5343 16.043 15.1745 15.6235 15.6542 15.3091C15.7791 15.2273 15.8932 15.1526 15.9893 15.0967L16.0001 15.0906ZM13.4142 6.17041C13.5048 5.70581 13.9421 5.4021 14.4181 5.48999C16.5025 5.89673 18.1109 7.5105 18.5182 9.6001C18.6088 10.0659 18.3041 10.5186 17.841 10.6113C17.7852 10.6213 17.7305 10.6265 17.6757 10.6265C17.2674 10.6265 16.9128 10.3335 16.8351 9.93091L16.8351 9.92993C16.5623 8.53076 15.4857 7.45166 14.0914 7.17969C13.6284 7.08887 13.3236 6.63525 13.4142 6.17041Z" clip-rule="evenodd" fill-opacity="1.000000" fill-rule="evenodd"/>
                </g>
        </symbol>
        <symbol id="svg-map">
                <g>
                        <path id="Location" d="M3.5 10.3179C3.5 5.71777 7.34387 2 11.9935 2C16.6561 2 20.5 5.71777 20.5 10.3179C20.5 12.6357 19.657 14.7876 18.2695 16.6116C16.7388 18.6235 14.8522 20.3765 12.7285 21.7524C12.2425 22.0703 11.8039 22.0945 11.2704 21.7524C9.13477 20.3765 7.24811 18.6235 5.73053 16.6116C4.34198 14.7876 3.5 12.6357 3.5 10.3179ZM9.19421 10.5767C9.19421 12.1177 10.4517 13.3296 11.9935 13.3296C13.5363 13.3296 14.8058 12.1177 14.8058 10.5767C14.8058 9.04785 13.5363 7.77686 11.9935 7.77686C10.4517 7.77686 9.19421 9.04785 9.19421 10.5767Z" clip-rule="evenodd" fill-opacity="1.000000" fill-rule="evenodd"/>
                </g>
        </symbol>
</svg>
        